PathFileType	4	(X/Y/Z)	D:\Share\Shared_Data\Ergonomics\Sit To Stand Pertubation\S0\Free STS.trc
DataRate	CameraRate	NumFrames	NumMarkers	Units	OrigDataRate	OrigDataStartFrame	OrigNumFrames	
100	100	12	18	m	100	2718	211
Frame#	Time	R_Toe			R_ASIS			R_Pelvis			V_Sacral			L_Pelvis			L_ASIS			Clavical			R_Acromium			L_Acromium			Sternum			Torso			R_Thigh_Med			R_Thigh_Lat			R_Thigh			R_Shank_Med			R_Shank_Lat			R_Shank			R_Heel			
		X1	Y1	Z1	X2	Y2	Z2	X3	Y3	Z3	X4	Y4	Z4	X5	Y5	Z5	X6	Y6	Z6	X7	Y7	Z7	X8	Y8	Z8	X9	Y9	Z9	X10	Y10	Z10	X11	Y11	Z11	X12	Y12	Z12	X13	Y13	Z13	X14	Y14	Z14	X15	Y15	Z15	X16	Y16	Z16	X17	Y17	Z17	X18	Y18	Z18	

2718	13.6	0.3768584	0.048537083	0.1461411	-0.04657008	0.74227734	0.15979974	-0.17322989	0.71999725	0.20549841	-0.29040781	0.69020428	-0.022539671	-0.15171193	0.71384967	-0.20389105	-0.031932217	0.73986694	-0.15684131	-0.051258392	1.1273453	0.00059336418	-0.13494324	1.1821584	0.14340355	-0.14594225	1.1851028	-0.14846103	-0.0138718	1.0375276	-0.01689773	-0.043685177	1.0807035	-0.12280477	0.30677432	0.49056805	0.089985214	0.28358481	0.50847571	0.22259294	0.2122877	0.6421864	0.13554269	0.25464189	0.10521198	0.11071269	0.19615771	0.091013908	0.19800789	0.24928403	0.3099303	0.22732004	0.15587419	0.049271706	0.14969353
2719	13.61	0.37684674	0.048563046	0.14613564	-0.046559242	0.74227612	0.15978654	-0.17322536	0.72001941	0.20549425	-0.29041904	0.69021411	-0.022541088	-0.15172353	0.71385657	-0.20390199	-0.031936024	0.73985175	-0.15685556	-0.05103791	1.1273311	0.00055041689	-0.13470755	1.1821803	0.14336221	-0.14571863	1.1851134	-0.14849648	-0.013684798	1.037493	-0.01693507	-0.043485664	1.0806859	-0.12284625	0.30676114	0.49057007	0.089960686	0.28357745	0.5084827	0.22257074	0.21227907	0.64219012	0.13551744	0.25462938	0.10521604	0.11072713	0.19616835	0.091007652	0.19800435	0.2492795	0.30993686	0.22731706	0.15586682	0.049271343	0.14971344
2720	13.62	0.37683337	0.048590466	0.14612706	-0.046556725	0.74227386	0.15977145	-0.17322849	0.7200426	0.20549017	-0.29043756	0.69022034	-0.022543776	-0.15174361	0.71386542	-0.20391495	-0.031947758	0.73983704	-0.15687222	-0.05079792	1.127314	0.0005089646	-0.13445306	1.1822004	0.14332275	-0.14547601	1.1851239	-0.14852997	-0.013485651	1.0374528	-0.016971958	-0.043266903	1.0806682	-0.12288706	0.30673886	0.49057217	0.08992556	0.283565	0.50848932	0.22253853	0.21226389	0.64219354	0.13548795	0.25461232	0.1052194	0.11074047	0.19618097	0.090998901	0.19799591	0.24927324	0.30994528	0.22730983	0.15585783	0.049269684	0.14973492
2721	13.63	0.37681854	0.048617722	0.14611569	-0.046561367	0.74227136	0.15975473	-0.17323828	0.72006689	0.2054861	-0.29046399	0.69022302	-0.022547281	-0.15177205	0.71387592	-0.20392946	-0.031967659	0.73982288	-0.15689117	-0.050535141	1.1272922	0.00046934575	-0.13417603	1.1822179	0.1432851	-0.14521046	1.1851323	-0.14856157	-0.013272523	1.0374054	-0.01700827	-0.043027531	1.0806475	-0.12292702	0.30670792	0.49057468	0.08988015	0.28354807	0.50849622	0.22249632	0.21224286	0.64219727	0.13545464	0.25459126	0.10522221	0.11075245	0.19619394	0.090988701	0.19798502	0.24926622	0.30995618	0.22729826	0.15584735	0.049266865	0.14975778
2722	13.64	0.3768028	0.04864349	0.14610175	-0.046571953	0.74226923	0.1597364	-0.17325343	0.72009265	0.20548181	-0.29049869	0.69022247	-0.022550962	-0.15180885	0.71388843	-0.20394475	-0.031996056	0.73980914	-0.15691176	-0.050246475	1.1272634	0.00043138343	-0.13387263	1.1822319	0.14324899	-0.14491727	1.1851365	-0.14859174	-0.013042868	1.0373486	-0.017044079	-0.042765495	1.0806205	-0.1229667	0.30666916	0.49057794	0.089825027	0.28352704	0.50850403	0.22244426	0.21221696	0.64220142	0.13541745	0.25456712	0.10522462	0.1107627	0.19620543	0.090978401	0.19797389	0.24925938	0.30996951	0.22728249	0.15583546	0.049263084	0.14978143
2723	13.65	0.37678683	0.048667377	0.14608495	-0.046587761	0.74226758	0.15971661	-0.17327275	0.7201203	0.20547688	-0.29054166	0.6902193	-0.022553974	-0.1518541	0.71390338	-0.20395988	-0.032033241	0.73979596	-0.15693318	-0.049928436	1.1272253	0.0003944239	-0.13353851	1.1822416	0.14321393	-0.14459084	1.1851346	-0.14862132	-0.01279358	1.0372804	-0.017079645	-0.04247702	1.0805845	-0.12300733	0.30662338	0.49058221	0.089760765	0.28350247	0.50851303	0.22238275	0.21218709	0.64220679	0.13537553	0.2545408	0.10522678	0.11077087	0.19621407	0.090969307	0.19796439	0.24925348	0.30998517	0.22726265	0.1558223	0.049258488	0.1498053
2724	13.66	0.37677072	0.048690037	0.14606459	-0.046608486	0.74226581	0.15969556	-0.17329526	0.72015118	0.20547116	-0.2905925	0.69021387	-0.022555378	-0.15190793	0.71392126	-0.20397391	-0.032079403	0.73978314	-0.15695457	-0.049576599	1.1271759	0.00035764211	-0.1331687	1.1822458	0.14317924	-0.14422488	1.1851268	-0.14865135	-0.01252131	1.0371973	-0.017115423	-0.042157028	1.0805372	-0.12305027	0.30657132	0.49058783	0.089687691	0.28347452	0.50852328	0.22231213	0.21215382	0.64221387	0.13532779	0.25451338	0.10522894	0.11077673	0.19621896	0.090962601	0.19795802	0.24924892	0.31000235	0.22723869	0.15580788	0.049252972	0.14982895
2725	13.67	0.37675412	0.048713024	0.14603966	-0.046633408	0.74226385	0.15967358	-0.17332037	0.7201864	0.2054648	-0.29065039	0.69020709	-0.022554363	-0.15197043	0.71394257	-0.20398607	-0.032134598	0.73977045	-0.15697525	-0.049185699	1.1271134	0.00032047525	-0.13275751	1.1822448	0.14314384	-0.14381268	1.1851133	-0.14868304	-0.012222826	1.0370953	-0.017151907	-0.041800346	1.0804756	-0.12309615	0.30651315	0.49059482	0.089605911	0.2834433	0.5085351	0.22223286	0.2121172	0.64222314	0.13527306	0.25448587	0.10523158	0.11078024	0.19622052	0.090958649	0.19795528	0.24924561	0.31002054	0.22721048	0.15579218	0.049246273	0.14985233
2726	13.68	0.37673605	0.04873856	0.14600909	-0.046661209	0.74226154	0.15965112	-0.1733477	0.72022736	0.20545822	-0.2907142	0.69019965	-0.022550543	-0.15204137	0.71396759	-0.20399577	-0.03219873	0.73975781	-0.1569949	-0.048750511	1.1270367	0.00028273487	-0.13229889	1.182238	0.14310664	-0.14334749	1.1850962	-0.14871751	-0.011895284	1.0369708	-0.017189493	-0.041402946	1.0803966	-0.12314465	0.30644861	0.49060294	0.089515381	0.28340881	0.50854861	0.22214523	0.21207709	0.64223438	0.1352104	0.25445863	0.10523512	0.11078162	0.1962205	0.090956696	0.19795482	0.24924269	0.31003925	0.22717773	0.1557749	0.049238213	0.14987558
2727	13.69	0.37671503	0.048769012	0.14597176	-0.046690666	0.74225916	0.15962833	-0.17337714	0.7202749	0.20545181	-0.2907822	0.69019238	-0.022544125	-0.15212015	0.71399597	-0.20400269	-0.032271343	0.739745	-0.15701347	-0.048266315	1.1269443	0.00024429318	-0.13178645	1.1822252	0.14306645	-0.14282265	1.1850773	-0.14875562	-0.011536233	1.0368207	-0.017228405	-0.040962624	1.0802975	-0.12319495	0.30637683	0.49061182	0.089416008	0.28337057	0.50856448	0.22204936	0.21203313	0.64224744	0.13513914	0.25443108	0.10523997	0.1107812	0.19622017	0.090955872	0.19795514	0.24923865	0.31005878	0.22714049	0.15575555	0.049228611	0.14989934
2728	13.7	0.37668936	0.048806389	0.14592685	-0.046721523	0.74225653	0.15960521	-0.17340871	0.72032928	0.20544571	-0.29085214	0.69018555	-0.022535921	-0.15220564	0.71402753	-0.20400655	-0.032351345	0.73973218	-0.15703108	-0.047728958	1.1268344	0.00020473497	-0.13121385	1.182207	0.14302243	-0.14223227	1.1850586	-0.14879756	-0.011143267	1.0366422	-0.017268682	-0.040478592	1.0801753	-0.12324613	0.30629666	0.49062073	0.089307854	0.28332822	0.50858282	0.22194531	0.211985	0.64226154	0.13505875	0.25440189	0.10524644	0.11077942	0.19621864	0.090956169	0.19795641	0.24923157	0.31007962	0.22709885	0.15573326	0.049217304	0.14992433
2729	13.71	0.3766575	0.04885194	0.14587395	-0.046754459	0.74225348	0.15958185	-0.17344231	0.72039026	0.20543993	-0.29092157	0.69017938	-0.022527025	-0.15229617	0.71406165	-0.20400746	-0.032436829	0.73971979	-0.15704785	-0.047135147	1.1267059	0.00016340043	-0.13057523	1.1821833	0.14297398	-0.14157166	1.1850405	-0.14884302	-0.010713483	1.0364343	-0.01731039	-0.039950218	1.0800284	-0.12329779	0.30620667	0.49062885	0.089191238	0.28328125	0.50860416	0.22183336	0.21193246	0.64227576	0.13496895	0.25436974	0.10525468	0.11077664	0.1962139	0.090957947	0.19795967	0.24921945	0.31010248	0.22705309	0.15570711	0.049204269	0.14995143
